<svg width="112" height="33" viewBox="0 0 112 33" fill="none" xmlns="http://www.w3.org/2000/svg">
<path d="M6.66657 17.5833C6.66657 19.7812 7.55287 21.772 8.98756 23.2179C9.12593 23.3574 9.19511 23.4271 9.23595 23.4942C9.27491 23.5581 9.2976 23.6132 9.315 23.6861C9.33324 23.7624 9.33324 23.8493 9.33324 24.0231V27.1833C9.33324 27.5567 9.33324 27.7434 9.4059 27.886C9.46982 28.0114 9.5718 28.1134 9.69724 28.1773C9.83985 28.25 10.0265 28.25 10.3999 28.25H12.9332C13.3066 28.25 13.4933 28.25 13.6359 28.1773C13.7613 28.1134 13.8633 28.0114 13.9272 27.886C13.9999 27.7434 13.9999 27.5567 13.9999 27.1833V26.65C13.9999 26.2766 13.9999 26.0899 14.0726 25.9473C14.1365 25.8219 14.2385 25.7199 14.3639 25.656C14.5065 25.5833 14.6932 25.5833 15.0666 25.5833H16.9332C17.3066 25.5833 17.4933 25.5833 17.6359 25.656C17.7613 25.7199 17.8633 25.8219 17.9272 25.9473C17.9999 26.0899 17.9999 26.2766 17.9999 26.65V27.1833C17.9999 27.5567 17.9999 27.7434 18.0726 27.886C18.1365 28.0114 18.2385 28.1134 18.3639 28.1773C18.5065 28.25 18.6932 28.25 19.0666 28.25H21.6C21.9734 28.25 22.1601 28.25 22.3027 28.1773C22.4281 28.1134 22.5301 28.0114 22.594 27.886C22.6667 27.7434 22.6667 27.5567 22.6667 27.1833V25.8824C22.6667 25.613 22.6667 25.4783 22.705 25.3702C22.7418 25.2665 22.7881 25.194 22.8666 25.117C22.9485 25.0367 23.0873 24.9722 23.3649 24.8434C24.6745 24.2354 25.7921 23.2834 26.6015 22.1036C26.7438 21.8961 26.815 21.7923 26.891 21.7311C26.9637 21.6725 27.0289 21.6381 27.1183 21.6113C27.2119 21.5833 27.3229 21.5833 27.545 21.5833H28.2667C28.64 21.5833 28.8267 21.5833 28.9693 21.5107C29.0948 21.4468 29.1968 21.3448 29.2607 21.2193C29.3333 21.0767 29.3333 20.89 29.3333 20.5167V15.9643C29.3333 15.6089 29.3333 15.4312 29.2673 15.294C29.2018 15.158 29.092 15.0482 28.956 14.9827C28.8188 14.9167 28.6411 14.9167 28.2857 14.9167C28.0284 14.9167 27.8997 14.9167 27.7961 14.8817C27.6844 14.8441 27.606 14.794 27.525 14.7084C27.4498 14.629 27.3884 14.4962 27.2657 14.2306C26.8717 13.3783 26.3322 12.607 25.679 11.9487C25.5406 11.8093 25.4715 11.7396 25.4306 11.6725C25.3917 11.6085 25.369 11.5534 25.3516 11.4806C25.3333 11.4042 25.3333 11.3173 25.3333 11.1436V9.6641C25.3333 9.18404 25.3333 8.94401 25.2334 8.78267C25.1458 8.64134 25.0086 8.53784 24.8486 8.49246C24.666 8.44066 24.4352 8.5066 23.9736 8.63848L20.8102 9.54229C20.7565 9.55765 20.7296 9.56533 20.7023 9.57072C20.678 9.57551 20.6535 9.57895 20.6288 9.58101C20.601 9.58333 20.5731 9.58333 20.5172 9.58333H19.9454M6.66657 17.5833C6.66657 14.5112 8.39819 11.8436 10.9386 10.5032M6.66657 17.5833H5.33333C3.86057 17.5833 2.66666 16.3894 2.66666 14.9167C2.66666 13.9296 3.20293 13.0678 4 12.6068M20 8.91667C20 11.494 17.9107 13.5833 15.3333 13.5833C12.756 13.5833 10.6667 11.494 10.6667 8.91667C10.6667 6.33934 12.756 4.25 15.3333 4.25C17.9107 4.25 20 6.33934 20 8.91667Z" stroke="#437D8E" stroke-width="2.5" stroke-linecap="round" stroke-linejoin="round"/>
<path d="M44.192 18.054H40.448L39.648 23.75H36.544L38.592 9.222H46.176L45.824 11.718H41.344L40.768 15.686H44.512L44.192 18.054ZM50.5212 7.142C51.0119 7.142 51.3852 7.31267 51.6412 7.654C51.9185 7.99533 52.0145 8.43267 51.9292 8.966C51.8652 9.478 51.6519 9.90467 51.2892 10.246C50.9265 10.566 50.4999 10.726 50.0092 10.726C49.5399 10.726 49.1665 10.566 48.8892 10.246C48.6119 9.90467 48.5052 9.478 48.5692 8.966C48.6759 8.43267 48.9105 7.99533 49.2732 7.654C49.6359 7.31267 50.0519 7.142 50.5212 7.142ZM49.6572 23.75H46.6812L48.2172 12.614L51.2892 12.198L49.6572 23.75ZM53.9887 12.422H56.6127L56.4847 13.862H56.5487C56.6554 13.798 56.8047 13.67 56.9967 13.478C57.21 13.286 57.4767 13.094 57.7967 12.902C58.586 12.4113 59.3647 12.166 60.1327 12.166C61.1994 12.166 61.9034 12.486 62.2447 13.126C62.586 13.766 62.6607 14.758 62.4687 16.102L61.3807 23.75H58.4687L59.3967 16.838C59.5034 16.0273 59.4927 15.4833 59.3647 15.206C59.2367 14.9073 58.9487 14.758 58.5007 14.758C58.1167 14.758 57.7647 14.8753 57.4447 15.11C56.8474 15.5793 56.5167 15.878 56.4527 16.006L55.3647 23.75H52.3887L53.9887 12.422ZM71.9952 11.718H69.0512L67.3552 23.75H64.2832L65.9472 11.718H62.9712L63.2912 9.222H72.3792L71.9952 11.718ZM75.8734 23.75H72.8974L74.4974 12.422H77.1214L77.0254 13.926H77.0574C77.3774 13.414 77.7828 12.9873 78.2734 12.646C78.7641 12.3047 79.1908 12.134 79.5534 12.134C79.9161 12.134 80.1508 12.166 80.2574 12.23C80.3854 12.2727 80.5028 12.3153 80.6094 12.358L80.0014 14.95C79.8734 14.9287 79.7028 14.886 79.4894 14.822C79.2974 14.758 79.0734 14.726 78.8174 14.726C78.5614 14.726 78.2948 14.8113 78.0174 14.982C77.7401 15.1527 77.3881 15.43 76.9614 15.814L75.8734 23.75ZM88.3236 14.566C87.9396 14.5233 87.4382 14.502 86.8196 14.502C86.2009 14.502 85.6782 14.758 85.2516 15.27C84.8462 15.782 84.5476 16.71 84.3556 18.054C84.1849 19.3767 84.1956 20.2833 84.3876 20.774C84.6009 21.2647 85.0062 21.51 85.6036 21.51C85.9662 21.51 86.3182 21.4033 86.6596 21.19C87.0222 20.9553 87.3102 20.71 87.5236 20.454L88.3236 14.566ZM87.5236 22.406C86.3076 23.494 85.1236 24.038 83.9716 24.038C82.3076 24.038 81.3582 23.0033 81.1236 20.934C81.0382 20.2087 81.0702 19.3127 81.2196 18.246C81.3689 17.158 81.6249 16.23 81.9876 15.462C82.3502 14.694 82.7769 14.0647 83.2676 13.574C84.1849 12.678 85.3262 12.23 86.6916 12.23C88.3129 12.23 89.9449 12.39 91.5876 12.71L90.0196 23.75H87.5236V22.406ZM99.9445 14.822C99.2405 14.5873 98.6432 14.47 98.1525 14.47C97.4058 14.47 96.8192 14.7687 96.3925 15.366C95.9658 15.942 95.6565 16.8807 95.4645 18.182C95.2938 19.462 95.3472 20.3687 95.6245 20.902C95.9232 21.414 96.3392 21.67 96.8725 21.67C97.4272 21.67 97.9072 21.5953 98.3125 21.446C98.7178 21.2753 98.9952 21.1687 99.1445 21.126L99.5605 22.982C98.3872 23.686 97.2672 24.038 96.2005 24.038C93.1285 24.038 91.8592 22.1073 92.3925 18.246C92.9258 14.1927 94.8138 12.166 98.0565 12.166C98.9738 12.166 99.8272 12.3153 100.616 12.614L99.9445 14.822ZM103.182 7.878L106.19 7.462L104.814 17.318L108.366 12.422H111.726L107.342 17.478L110.478 23.75H106.958L104.654 18.342L103.918 23.75H100.942L103.182 7.878Z" fill="#437D8E"/>
</svg>
